:SAMPLES-PER-SECOND 30
:FULLY-SPECIFIED
:DEGREES
164
root  -35.2123 28.8051 -2.84393 29.0168 -82.1889 -27.2374
RightUpLeg  -56.6959 -14.385 4.66653
RightLeg  86.5425 0.292738 -0.165676
RightFoot  -29.0825 -1.09325 -5.73316
RightToes  -4.65663e-010 0 -3.6325e-017
Spine  73.132 -7.68243 9.7395
Spine1  4.60238 -1.30922 1.20764
HEad  -53.9948 -9.02436 -0.0129183
LeftShoulder1  1.49496 -0.857123 -28.1853
LeftArm  -7.79186 -11.7261 -40.9275
LeftForeArm  34.486 -54.0833 -12.6541
LeftHand  -0.0557099 4.3061 3.95272
RightShoulder  0.444655 -1.88088 21.4548
RightArm  6.62694 28.898 51.0241
RightForeArm  18.2793 35.5714 6.94157
RightHand  -0.165362 7.11271 -1.8917
LeftUpLeg  -65.224 3.02098 5.48164
LeftLeg  81.6089 -0.654295 -3.44616
LeftFoot  -16.8382 0.314907 4.44993
LeftToes  8.74931e-010 -1.05764e-010 1.2659e-011
165
root  -35.443 29.4635 -2.65444 30.3187 -82.3286 -28.7018
RightUpLeg  -54.1963 -13.899 4.07719
RightLeg  83.796 0.284879 -0.0947518
RightFoot  -28.5909 -0.969928 -5.11141
RightToes  -4.65663e-010 0 -3.6325e-017
Spine  72.3802 -7.83257 9.74046
Spine1  4.36919 -1.40444 0.497601
HEad  -54.3758 -8.82257 0.402398
LeftShoulder1  1.55452 -0.945075 -28.8691
LeftArm  -6.9392 -12.3386 -40.2192
LeftForeArm  32.3621 -51.957 -11.7714
LeftHand  -0.0710784 3.64007 3.50666
RightShoulder  0.35283 -2.24035 22.1081
RightArm  5.7108 30.1204 51.2219
RightForeArm  18.0609 34.5044 6.66634
RightHand  -0.143699 6.33882 -1.7604
LeftUpLeg  -62.7513 2.6274 5.43834
LeftLeg  79.3335 -0.701801 -2.84011
LeftFoot  -16.9642 0.314564 4.32708
LeftToes  8.74931e-010 -1.05764e-010 1.2659e-011
166
root  -35.6805 30.2964 -2.50645 32.7598 -83.0503 -31.5618
RightUpLeg  -51.0219 -12.8873 3.42775
RightLeg  80.1724 0.288059 0.0242884
RightFoot  -27.7145 -0.844023 -4.55544
RightToes  -4.65663e-010 0 -3.6325e-017
Spine  71.6845 -6.99644 9.05531
Spine1  4.23603 -1.07058 0.346865
HEad  -54.8013 -8.24926 0.530886
LeftShoulder1  1.55334 -1.00929 -28.3283
LeftArm  -6.34383 -11.8675 -41.4759
LeftForeArm  31.6858 -49.7051 -10.8077
LeftHand  -0.0496663 4.32243 3.11361
RightShoulder  0.324537 -2.33699 22.0822
RightArm  4.69056 30.7429 51.0372
RightForeArm  18.0991 33.9893 6.52864
RightHand  -0.168134 6.35764 -1.99871
LeftUpLeg  -59.3391 2.75657 5.35408
LeftLeg  76.2045 -0.730562 -2.19381
LeftFoot  -16.8617 0.29919 4.10265
LeftToes  8.74931e-010 -1.05764e-010 1.2659e-011
167
root  -35.988 31.1672 -2.33538 36.4995 -83.5521 -35.2334
RightUpLeg  -48.1187 -11.9488 3.00611
RightLeg  76.2136 0.300039 0.102816
RightFoot  -26.8174 -0.690848 -3.74491
RightToes  -4.65663e-010 0 -3.6325e-017
Spine  69.6745 -6.42059 8.63634
Spine1  4.88011 -0.828015 -0.276067
HEad  -55.4482 -7.94317 0.562242
LeftShoulder1  1.47627 -0.809819 -28.1288
LeftArm  -5.43285 -11.7371 -41.9921
LeftForeArm  30.5736 -47.649 -10.0469
LeftHand  -0.0755392 3.51916 3.22575
RightShoulder  0.274945 -2.52951 22.6276
RightArm  4.08464 31.6631 50.4743
RightForeArm  17.0245 33.7367 6.52633
RightHand  -0.262943 6.28208 -2.94959
LeftUpLeg  -56.2936 2.70655 5.38072
LeftLeg  72.8413 -0.705844 -1.5813
LeftFoot  -16.7219 0.275293 3.72124
LeftToes  8.74931e-010 -1.05764e-010 1.2659e-011
168
root  -36.3417 31.9932 -2.17402 40.8056 -84.3065 -37.7981
RightUpLeg  -47.1959 -10.9112 2.6749
RightLeg  72.3244 0.326072 0.181363
RightFoot  -25.6351 -0.584736 -3.28056
RightToes  -4.65663e-010 0 -3.6325e-017
Spine  65.8415 -5.48715 8.18711
Spine1  4.8134 -0.545068 -0.963132
HEad  -55.3837 -7.78774 0.593458
LeftShoulder1  1.46737 -0.813902 -27.8846
LeftArm  -4.63755 -10.821 -42.3169
LeftForeArm  30.44 -45.8178 -9.36503
LeftHand  -0.0236928 5.57566 1.20824
RightShoulder  0.272299 -2.53906 22.6576
RightArm  3.07489 31.0041 50.3006
RightForeArm  16.9233 34.4059 6.70851
RightHand  -0.254776 6.47533 -2.83139
LeftUpLeg  -55.0349 2.95324 4.95358
LeftLeg  69.3235 -0.613554 -0.983334
LeftFoot  -16.2216 0.248962 3.5464
LeftToes  8.74931e-010 -1.05764e-010 1.2659e-011
